<svg width="25" height="25" viewBox="0 0 25 25" fill="none" xmlns="http://www.w3.org/2000/svg">
<g clip-path="url(#clip0)">
<path d="M6.139 12.874L18.119 24.854C18.2183 24.9491 18.351 25.0014 18.4885 24.9995C18.6261 24.9976 18.7573 24.9418 18.854 24.844C18.9467 24.7463 18.9984 24.6167 18.9984 24.482C18.9984 24.3473 18.9467 24.2177 18.854 24.12L7.244 12.51L18.854 0.893997C18.9035 0.846813 18.943 0.790237 18.9703 0.727581C18.9977 0.664925 19.0122 0.597448 19.0132 0.529099C19.0141 0.460749 19.0014 0.3929 18.9758 0.329523C18.9502 0.266146 18.9122 0.208512 18.864 0.159998C18.8168 0.110539 18.7602 0.0709883 18.6976 0.0436611C18.6349 0.0163339 18.5675 0.00177993 18.4991 0.000848725C18.4308 -8.24761e-05 18.3629 0.0126284 18.2995 0.0382385C18.2362 0.0638486 18.1785 0.101843 18.13 0.149998C18.124 0.153998 18.12 0.159998 18.12 0.159998L6.139 12.14C6.0908 12.1882 6.05257 12.2454 6.02649 12.3084C6.00041 12.3713 5.98698 12.4388 5.98698 12.507C5.98698 12.5752 6.00041 12.6426 6.02649 12.7056C6.05257 12.7686 6.0908 12.8258 6.139 12.874V12.874Z" fill="white"/>
</g>
<defs>
<clipPath id="clip0">
<rect x="25" y="25" width="25" height="25" transform="rotate(-180 25 25)" fill="white"/>
</clipPath>
</defs>
</svg>
